<?xml version="1.0"?>
<svg xmlns="http://www.w3.org/2000/svg" xmlns:xlink="http://www.w3.org/1999/xlink" xmlns:svgjs="http://svgjs.com/svgjs" version="1.1" width="512" height="512" x="0" y="0" viewBox="0 0 52 59" style="enable-background:new 0 0 512 512" xml:space="preserve" class=""><g><g xmlns="http://www.w3.org/2000/svg" id="003---Baby-Changing" transform="translate(-1)"><circle id="Oval" cx="19" cy="4" r="4" fill="#9c9595" data-original="#000000" style="" class=""/><path id="Shape" d="m2.068 55.5c0 1.9329966 1.56700338 3.5 3.5 3.5s3.5-1.5670034 3.5-3.5c0-13.764.113-7.251-.57-27.052-.015-.442-.37.261 6.481-10.57.1624641-.2569423.432985-.4260313.7351341-.4594954.3021491-.033464.6031144.072331.8178659.2874954l4.726 4.734c1.1736051 1.1736051 3.0763949 1.1736051 4.25 0s1.1736051-3.0763949 0-4.25c-6.357-6.348-6.521-6.721-9.817-8.918-1.1204939-.70962137-2.4770217-.94498194-3.7710723-.65428942-1.2940506.29069253-2.41958648 1.08361813-3.1289277 2.20428942l-6.86 10.839c-.78711385 1.3119135-1.10219483 2.8534464-.893 4.369 1.235 22.757 1.03 16.243 1.03 29.47z" fill="#9c9595" data-original="#000000" style="" class=""/><path id="Shape" d="m23.948 27.633-2.52-3.083c-.71723-.7814555-1.9197852-.867068-2.7404875-.1951014-.8207024.6719667-.9740722 1.8677702-.3495125 2.7251014 4.3 5.254 3.537 4.324 4.239 5.185.3800323.4653882.9491584.7352641 1.55.735h-9.059c-1.1045695 0-2 .8954305-2 2v1c0 1.1045695.8954305 2 2 2h35c1.1045695 0 2-.8954305 2-2v-1c0-1.1045695-.8954305-2-2-2h-17.5c1.3487342.0059133 2.4551334-1.0667298 2.491-2.415.3080834 1.5696543 1.7914583 2.6231059 3.3749738 2.3968126 1.5835154-.2262932 2.7124533-1.6530591 2.5685588-3.2461768-.1438945-1.5931178-1.510214-2.7945056-3.1086494-2.7333968-1.5984353.0611087-2.8690418 1.3633071-2.8908832 2.962761-.1981735-.9218998-.9012557-1.6520981-1.815-1.885.982-2.195 1.24-2.578 1.24-3.2.0062536-.9481387-.6540992-1.7703689-1.581247-1.9688705-.9271479-.1985016-1.8662613.2812841-2.248753 1.1488705l-1.75 3.94h-4.126c-.2999875-.0000455-.5841079-.1347641-.774-.367z" fill="#9c9595" data-original="#000000" style="" class=""/><path id="Shape" d="m20 59h25c1.6568542 0 3-1.3431458 3-3v-16h-31v16c0 1.6568542 1.3431458 3 3 3z" fill="#9c9595" data-original="#000000" style="" class=""/></g></g></svg>
