<?xml version="1.0"?>
<svg xmlns="http://www.w3.org/2000/svg" xmlns:xlink="http://www.w3.org/1999/xlink" xmlns:svgjs="http://svgjs.com/svgjs" version="1.1" width="512" height="512" x="0" y="0" viewBox="0 0 512 512" style="enable-background:new 0 0 512 512" xml:space="preserve" class=""><g><path xmlns="http://www.w3.org/2000/svg" d="m512 176.882812c0-16.429687-13.367188-29.792968-29.796875-29.792968h-78.125c3.269531-4.71875 5.882813-9.875 7.726563-15.3125 12.683593-2.128906 22.402343-13.558594 22.402343-27.292969 0-12.574219-8.144531-23.21875-19.257812-26.558594-1.175781-18.945312-10.960938-36.144531-26.476563-46.859375.78125-2.613281 1.121094-5.375.972656-8.199218-.617187-11.917969-10.039062-21.707032-21.914062-22.7695318-5.019531-.4492182-9.921875.6406248-14.179688 3.0898438-3.625-2.074219-7.753906-3.1875-11.972656-3.1875s-8.34375 1.113281-11.972656 3.1875c-4.257812-2.449219-9.160156-3.535156-14.179688-3.0898438-11.875 1.0624998-21.296874 10.8515628-21.914062 22.7695318-.171875 3.324218.324219 6.566406 1.425781 9.582031-14.308593 10.753906-23.359375 27.351562-24.554687 45.28125-11.457032 3.105469-19.941406 13.921875-19.941406 26.753906 0 13.988281 10.078124 25.585937 23.109374 27.402344 1.84375 5.398437 4.445313 10.515625 7.691407 15.203125h-75.453125c-2.828125-15.78125-16.644532-27.792969-33.222656-27.792969-16.582032 0-30.394532 12.015625-33.226563 27.792969h-17.027344c-2.828125-15.78125-16.644531-27.792969-33.222656-27.792969s-30.394531 12.015625-33.222656 27.792969h-25.871094c-16.429687 0-29.796875 13.363281-29.796875 29.792968 0 13.792969 9.425781 25.425782 22.171875 28.800782l-8.84375 65.261718c-2.917969 21.535157 3.605469 43.269532 17.902344 59.632813 6.734375 7.707031 14.890625 13.84375 23.898437 18.203125v12.128906c0 4.171875 3.378906 7.550782 7.546875 7.550782 4.171875 0 7.550781-3.378907 7.550781-7.550782v-6.71875c5.742188 1.390625 11.671876 2.136719 17.691407 2.136719h23.445312c4.171875 0 7.550781-3.382813 7.550781-7.550781 0-4.171875-3.378906-7.550782-7.550781-7.550782h-23.441406c-6.066406 0-12.019531-.933593-17.691406-2.679687v-33.507813h68.375v55.871094c0 4.171875 3.378906 7.550782 7.546875 7.550782 4.171875 0 7.550781-3.378907 7.550781-7.550782v-4.582031h196.011719c4.167968 0 7.550781-3.378906 7.550781-7.550781 0-4.167969-3.382813-7.550782-7.550781-7.550782h-196.011719v-134.546874h321.023437l8.984376 66.292968c2.328124 17.214844-2.886719 34.589844-14.316407 47.671875-11.425781 13.082031-27.945312 20.582031-45.316406 20.582031h-40.171875c-4.171875 0-7.550781 3.382813-7.550781 7.550782 0 4.171875 3.378906 7.550781 7.550781 7.550781h40.171875c21.730469 0 42.394531-9.386719 56.6875-25.75 14.296875-16.363281 20.824219-38.101563 17.90625-59.632813l-8.84375-65.261718c12.746094-3.375 22.171875-15.003906 22.171875-28.800782zm-203.605469-153.234374c.226563-4.382813 3.820313-8.121094 8.179688-8.507813 2.453125-.21875 4.820312.53125 6.679687 2.109375 3.558594 3.03125 8.730469 3.027344 12.296875-.003906 1.152344-.976563 3.097657-2.144532 5.828125-2.144532 2.730469 0 4.675782 1.167969 5.832032 2.148438 3.566406 3.027344 8.738281 3.027344 12.296874 0 1.855469-1.578125 4.226563-2.328125 6.679688-2.109375 4.359375.386719 7.949219 4.125 8.175781 8.507813.101563 1.910156-.386719 3.746093-1.378906 5.3125-.261719.296874-.5.617187-.710937.960937-.125.148437-.246094.300781-.378907.441406-1.722656 1.816407-4.050781 2.816407-6.554687 2.816407-2.730469 0-4.675782-1.167969-5.828125-2.148438-1.78125-1.511719-3.96875-2.269531-6.152344-2.269531s-4.371094.757812-6.148437 2.269531c-1.152344.980469-3.101563 2.148438-5.828126 2.148438-2.730468 0-4.679687-1.167969-5.828124-2.148438-3.5625-3.027344-8.738282-3.027344-12.308594 0-1.148438.980469-3.09375 2.148438-5.824219 2.148438-2.503906 0-4.832031-1-6.558594-2.816407-1.722656-1.816406-2.597656-4.203125-2.46875-6.714843zm-21.988281 99.074218c-.882812-3.730468-4.4375-6.214844-8.222656-5.769531-.464844.054687-.875.082031-1.25.082031-6.390625 0-11.589844-5.628906-11.589844-12.550781 0-6.871094 5.128906-12.472656 11.457031-12.546875 6.160157.425781 8.808594-4.941406 8.347657-10.148438 0-14.84375 7.183593-28.78125 19.003906-37.5 3.914062 2.566407 8.535156 3.988282 13.265625 3.988282 4.222656 0 8.355469-1.113282 11.980469-3.191406 3.628906 2.078124 7.757812 3.191406 11.980468 3.191406 4.21875 0 8.351563-1.113282 11.976563-3.191406 3.628906 2.078124 7.757812 3.191406 11.980469 3.191406 5.226562 0 10.316406-1.726563 14.464843-4.824219 12.550781 8.632813 20.167969 22.867187 20.167969 38.335937-.300781 4.550782 2.019531 10.144532 7.546875 10.144532 6.390625 0 11.585937 5.632812 11.585937 12.550781 0 6.921875-5.195312 12.550781-11.585937 12.550781-.285156 0-.566406-.03125-.867187-.054687-3.71875-.292969-7.089844 2.160156-7.949219 5.789062-2.21875 9.378907-7.417969 17.949219-14.710938 24.320313h-82.871093c-7.296876-6.382813-12.496094-14.964844-14.710938-24.367188zm-114.039062 11.675782c8.199218 0 15.167968 5.324218 17.664062 12.691406h-35.332031c2.5-7.367188 9.464843-12.691406 17.667969-12.691406zm-33.765626 27.792968v29.386719h-68.375v-29.386719zm-49.710937-27.792968c8.199219 0 15.167969 5.324218 17.664063 12.691406h-35.328126c2.496094-7.367188 9.464844-12.691406 17.664063-12.691406zm-73.789063 42.484374c0-8.101562 6.589844-14.695312 14.695313-14.695312h25.332031v29.390625h-25.332031c-8.105469 0-14.695313-6.59375-14.695313-14.695313zm27.503907 143.761719c-11.429688-13.082031-16.644531-30.457031-14.316407-47.671875l8.984376-66.292968h17.855468v124.8125c-4.609375-2.992188-8.835937-6.625-12.523437-10.847657zm27.621093-30.707031v-53.355469h68.375v53.355469zm68.375-68.457031h-68.375v-14.800781h68.375zm343.601563-29.902344h-328.5v-29.386719h328.5c8.105469 0 14.695313 6.589844 14.695313 14.691406 0 8.101563-6.589844 14.695313-14.695313 14.695313zm0 0" fill="#9c9595" data-original="#000000" style="" class=""/><path xmlns="http://www.w3.org/2000/svg" d="m328.382812 90.5625c0 6.203125-5.03125 11.234375-11.234374 11.234375-6.203126 0-11.234376-5.03125-11.234376-11.234375s5.03125-11.234375 11.234376-11.234375c6.203124 0 11.234374 5.03125 11.234374 11.234375zm0 0" fill="#9c9595" data-original="#000000" style="" class=""/><path xmlns="http://www.w3.org/2000/svg" d="m380.886719 90.5625c0 6.203125-5.03125 11.234375-11.234375 11.234375s-11.234375-5.03125-11.234375-11.234375 5.03125-11.234375 11.234375-11.234375 11.234375 5.03125 11.234375 11.234375zm0 0" fill="#9c9595" data-original="#000000" style="" class=""/><path xmlns="http://www.w3.org/2000/svg" d="m365.441406 105.289062h-45.765625c-2.859375 0-5.589843 1.21875-7.5 3.347657-1.910156 2.128906-2.828125 4.984375-2.519531 7.828125 1.835938 16.800781 15.984375 29.472656 32.902344 29.472656 16.921875 0 31.066406-12.671875 32.902344-29.472656.3125-2.84375-.605469-5.699219-2.515626-7.828125-1.910156-2.128907-4.644531-3.347657-7.503906-3.347657zm-22.882812 25.546876c-7.207032 0-13.492188-4.226563-16.351563-10.445313h32.707031c-2.863281 6.21875-9.144531 10.445313-16.355468 10.445313zm0 0" fill="#9c9595" data-original="#000000" style="" class=""/></g></svg>
