<?xml version="1.0"?>
<svg xmlns="http://www.w3.org/2000/svg" xmlns:xlink="http://www.w3.org/1999/xlink" xmlns:svgjs="http://svgjs.com/svgjs" version="1.1" width="512" height="512" x="0" y="0" viewBox="0 0 512 512" style="enable-background:new 0 0 512 512" xml:space="preserve" class=""><g><g xmlns="http://www.w3.org/2000/svg"><path d="m152.937 241c16.069-.381 29.736-6.782 44.194-13.564 16.421-7.706 35.024-16.436 58.872-16.436s42.451 8.73 58.872 16.421c14.456 6.78 28.152 13.152 44.617 13.515.71-4.92 1.511-9.822 1.511-14.936v-59.228c-30.095-14.163-71.837-16.772-105-16.772-33.187 0-74.938 2.624-105 16.767v59.233c0 5.136.8 10.058 1.516 15z" fill="#9c9595" data-original="#000000" style="" class=""/><path d="m361.003 133.861v-42.089c-30.095-14.163-71.837-16.772-105-16.772-33.187 0-74.938 2.624-105 16.767v42.094c13.068-4.706 45.998-13.861 105-13.861s91.932 9.155 105 13.861z" fill="#9c9595" data-original="#000000" style="" class=""/><path d="m350.947 270.123c-19.105-2.038-34.878-9.005-48.816-15.544-14.898-6.987-28.975-13.579-46.128-13.579s-31.23 6.606-46.128 13.594c-13.956 6.546-29.764 13.546-48.794 15.569 16.741 35.808 52.857 60.837 94.922 60.837 42.081 0 78.21-25.045 94.944-60.877z" fill="#9c9595" data-original="#000000" style="" class=""/><path d="m361.003 58.861v-33.402c0-6.592-4.307-12.422-10.62-14.341-13.579-4.16-43.901-11.118-94.38-11.118-50.493 0-80.815 6.958-94.38 11.118-6.313 1.919-10.62 7.749-10.62 14.341v33.402c13.068-4.706 45.998-13.861 105-13.861s91.932 9.155 105 13.861z" fill="#9c9595" data-original="#000000" style="" class=""/><path d="m301.003 387.971v-35.264c-14.145 5.043-29.145 8.293-45 8.293s-30.855-3.25-45-8.293v35.264l45 30z" fill="#9c9595" data-original="#000000" style="" class=""/><path d="m24.746 459.174-8.291 33.193c-1.128 4.482-.117 10.229 2.725 13.861 2.842 3.647 7.207 5.771 11.821 5.771h210.002v-67.973l-79.536-53.026h-40.464c-54.976 0-83.101-13.315-83.379-13.462-7.339-3.589-16.318-.615-20.039 6.753-3.706 7.412-.703 16.421 6.709 20.127.72.357 10.413 4.958 28.44 9.23-13.332 11.747-23.421 27.279-27.988 45.526zm171.257-8.176c8.284 0 15 6.716 15 15 0 8.286-6.716 15-15 15-8.286 0-15-6.714-15-15 0-8.284 6.714-15 15-15z" fill="#9c9595" data-original="#000000" style="" class=""/><path d="m271.003 444.027v67.973h210.002c4.614 0 8.979-2.124 11.821-5.771 2.842-3.633 3.853-9.379 2.725-13.861l-8.291-33.193c-4.561-18.245-14.65-33.781-27.984-45.527 18.025-4.272 27.717-8.871 28.436-9.229 7.383-3.691 10.356-12.627 6.709-20.024-3.618-7.368-12.583-10.444-20.039-6.855-.278.145-28.403 13.46-83.379 13.46h-40.464zm45 36.971c-8.286 0-15-6.714-15-15 0-8.284 6.714-15 15-15 8.284 0 15 6.716 15 15 0 8.286-6.716 15-15 15z" fill="#9c9595" data-original="#000000" style="" class=""/></g></g></svg>
