<?xml version="1.0"?>
<svg xmlns="http://www.w3.org/2000/svg" xmlns:xlink="http://www.w3.org/1999/xlink" xmlns:svgjs="http://svgjs.com/svgjs" version="1.1" width="512" height="512" x="0" y="0" viewBox="0 0 96 96" style="enable-background:new 0 0 512 512" xml:space="preserve" class=""><g><g xmlns="http://www.w3.org/2000/svg" id="_14-creditcard" data-name="14-creditcard"><g id="Glyph"><path d="m60 36a20 20 0 1 0 20 20 20.023 20.023 0 0 0 -20-20zm3.328 26.219a4 4 0 0 1 -5.117 1.359l-8-4 3.578-7.156 4.842 2.421 6.041-9.062 6.656 4.438z" fill="#9c9595" data-original="#000000" style="" class=""/><path d="m92 4h-88a4 4 0 0 0 -4 4v60a4 4 0 0 0 4 4h38.131a23.984 23.984 0 0 1 17.869-40h-56v-12h88v12h-32a23.984 23.984 0 0 1 17.869 40h14.131a4 4 0 0 0 4-4v-60a4 4 0 0 0 -4-4zm-64 40v8h-24v-8z" fill="#9c9595" data-original="#000000" style="" class=""/></g></g></g></svg>
