<?xml version="1.0"?>
<svg xmlns="http://www.w3.org/2000/svg" xmlns:xlink="http://www.w3.org/1999/xlink" xmlns:svgjs="http://svgjs.com/svgjs" version="1.1" width="512" height="512" x="0" y="0" viewBox="0 0 512 512" style="enable-background:new 0 0 512 512" xml:space="preserve" class=""><g><title xmlns="http://www.w3.org/2000/svg">Desk</title><path xmlns="http://www.w3.org/2000/svg" d="M256,116.276a47.59,47.59,0,1,0-47.589-47.589A47.642,47.642,0,0,0,256,116.276ZM256,37.1a31.59,31.59,0,1,1-31.589,31.59A31.625,31.625,0,0,1,256,37.1Z" fill="#9c9595" data-original="#000000" style="" class=""/><path xmlns="http://www.w3.org/2000/svg" d="M55.76,491H456.24a7.883,7.883,0,0,0,7.76-8.1V229.416C464,225,460.658,221,456.24,221H338V159.894A43.987,43.987,0,0,0,294.29,116h0a8.128,8.128,0,0,0-6.446,3.394,39.35,39.35,0,0,1-63.679-.033A8.1,8.1,0,0,0,217.714,116h0A43.987,43.987,0,0,0,174,159.894V221H55.76c-4.418,0-7.76,4-7.76,8.416V482.9A7.883,7.883,0,0,0,55.76,491ZM64,475V455H448v20Zm0-36V273H448V439ZM190,159.894a27.718,27.718,0,0,1,24.015-27.389,55.739,55.739,0,0,0,83.955,0A27.729,27.729,0,0,1,322,159.894V221H190ZM179.557,237a2.75,2.75,0,0,0,2.543,1H329.9a2.75,2.75,0,0,0,2.543-1H448v20H64V237Z" fill="#9c9595" data-original="#000000" style="" class=""/><path xmlns="http://www.w3.org/2000/svg" d="M362.445,332.829l-4.982-1.329a6.167,6.167,0,0,1-4.066-3.64A22.014,22.014,0,0,0,332.929,314H177.094l-17.743-28.284A7.964,7.964,0,0,0,152.572,282H140.206A8.193,8.193,0,0,0,132,290.017v61.7a8.1,8.1,0,0,0,4.949,7.352l25.029,10.828A110.784,110.784,0,0,0,205.812,379h31.763l-21.817,39.557a7.618,7.618,0,0,0,.123,7.721A7.814,7.814,0,0,0,222.768,430h31.944a7.769,7.769,0,0,0,6.036-2.487L303.181,379h53.244a23.495,23.495,0,0,0,6.02-46.171ZM148,298.117,158.213,314H148ZM356.425,363H299.537a7.769,7.769,0,0,0-6.036,2.487L251.068,414H236.3l21.817-39.517a7.653,7.653,0,0,0-.124-7.741A7.829,7.829,0,0,0,251.105,363H205.812a95.117,95.117,0,0,1-37.577-7.81L148,346.441V330H332.929a6.086,6.086,0,0,1,5.63,3.845,22.211,22.211,0,0,0,14.782,13.092l4.982,1.34a7.5,7.5,0,0,1-1.9,14.723Z" fill="#9c9595" data-original="#000000" style="" class=""/></g></svg>
