<?xml version="1.0"?>
<svg xmlns="http://www.w3.org/2000/svg" xmlns:xlink="http://www.w3.org/1999/xlink" xmlns:svgjs="http://svgjs.com/svgjs" version="1.1" width="512" height="512" x="0" y="0" viewBox="0 0 256 256" style="enable-background:new 0 0 512 512" xml:space="preserve" class=""><g><path xmlns="http://www.w3.org/2000/svg" d="m127 161.2a76.361 76.361 0 0 1 -76.062-69.634 2.5 2.5 0 1 1 4.98-.435c3.182 36.486 34.408 65.069 71.082 65.069s67.9-28.58 71.082-65.066a2.5 2.5 0 0 1 4.981.435 76.363 76.363 0 0 1 -76.063 69.631z" fill="#9c9595" data-original="#ebe7f2" style="" class=""/><g xmlns="http://www.w3.org/2000/svg" fill="#a58bc9"><path d="m123.765 112.822a2.5 2.5 0 0 1 -1.826-.792l-15.545-16.616a2.5 2.5 0 1 1 3.65-3.414l13.587 14.522 21.917-27.022a2.5 2.5 0 0 1 3.883 3.15l-23.725 29.25a2.5 2.5 0 0 1 -1.853.923z" fill="#9c9595" data-original="#a58bc9" style="" class=""/><path d="m181.091 211.134a77.494 77.494 0 0 1 -8.764-.439 2.5 2.5 0 0 1 -2.177-2.176c-.118-.958-2.778-23.693 6.554-42.372a2.5 2.5 0 0 1 4.473 2.235c-7.137 14.284-6.65 31.7-6.24 37.525 5.831.405 23.272.883 37.527-6.239a2.5 2.5 0 0 1 2.234 4.473c-11.737 5.864-25.076 6.993-33.607 6.993z" fill="#9c9595" data-original="#a58bc9" style="" class=""/><path d="m199.752 192.377a77.3 77.3 0 0 1 -8.678-.43 2.5 2.5 0 0 1 -2.177-2.176 91.782 91.782 0 0 1 1.563-27.883 2.5 2.5 0 1 1 4.883 1.072 89.06 89.06 0 0 0 -1.658 24.2 89.118 89.118 0 0 0 24.154-1.648 2.5 2.5 0 1 1 1.068 4.884 90.832 90.832 0 0 1 -19.155 1.981z" fill="#9c9595" data-original="#a58bc9" style="" class=""/><path d="m153.884 229.461a2.5 2.5 0 0 1 -1.768-4.268l66-66a2.5 2.5 0 1 1 3.535 3.535l-66 66a2.492 2.492 0 0 1 -1.767.733z" fill="#9c9595" data-original="#a58bc9" style="" class=""/><path d="m72.909 211.134c-8.531 0-21.869-1.129-33.607-6.993a2.5 2.5 0 0 1 2.234-4.473c14.284 7.137 31.7 6.651 37.526 6.241.4-5.829.883-23.272-6.239-37.527a2.5 2.5 0 1 1 4.473-2.235c9.332 18.679 6.672 41.414 6.554 42.372a2.5 2.5 0 0 1 -2.177 2.176 77.514 77.514 0 0 1 -8.764.439z" fill="#9c9595" data-original="#a58bc9" style="" class=""/><path d="m54.248 192.377a90.838 90.838 0 0 1 -19.155-1.977 2.5 2.5 0 1 1 1.068-4.884 88.865 88.865 0 0 0 24.154 1.65 89.079 89.079 0 0 0 -1.658-24.2 2.5 2.5 0 1 1 4.883-1.072 91.782 91.782 0 0 1 1.56 27.877 2.5 2.5 0 0 1 -2.177 2.176 77.3 77.3 0 0 1 -8.675.43z" fill="#9c9595" data-original="#a58bc9" style="" class=""/><path d="m100.116 229.461a2.492 2.492 0 0 1 -1.767-.732l-66-66a2.5 2.5 0 0 1 3.535-3.535l66 66a2.5 2.5 0 0 1 -1.768 4.268z" fill="#9c9595" data-original="#a58bc9" style="" class=""/></g><path xmlns="http://www.w3.org/2000/svg" d="m222.365 160.657a2.5 2.5 0 0 0 -2.177-2.177c-1.424-.174-35.116-4.073-53.987 14.8-16.387 16.388-15.6 43.94-15 51.843-9.879 3.384-17.214 7.508-21.7 12.107v-63.084a76.354 76.354 0 1 0 -5 0v63.388c-4.412-4.676-11.758-8.87-21.708-12.31.605-7.774 1.461-35.49-14.993-51.945-18.87-18.871-52.562-14.972-53.987-14.8a2.5 2.5 0 0 0 -2.177 2.177c-.175 1.425-4.072 35.115 14.8 53.987 13.155 13.157 33.513 15.247 45.12 15.247 4.058 0 7.044-.256 8.281-.383 15.355 5.085 24.514 12.1 24.514 18.826a2.5 2.5 0 0 0 5 0c0-6.734 9.185-13.763 24.583-18.85a81.752 81.752 0 0 0 8.51.407c11.608 0 31.966-2.09 45.121-15.246 18.872-18.872 14.975-52.562 14.8-53.987zm-172.395 50.451c-14.659-14.659-14.051-40.486-13.546-47.84 7.352-.511 33.155-1.139 47.84 13.546 14.657 14.659 14.05 40.483 13.545 47.839-7.36.503-33.182 1.114-47.839-13.545zm5.739-110.754h31.391a136.429 136.429 0 0 0 4.047 31.362 88.478 88.478 0 0 0 -21.331 8.77 70.964 70.964 0 0 1 -14.107-40.132zm14.108-45.132a88.473 88.473 0 0 0 21.329 8.771 136.435 136.435 0 0 0 -4.046 31.361h-31.391a70.959 70.959 0 0 1 14.108-40.132zm22.283 45.132h3.39a2.5 2.5 0 0 0 0-5h-3.39a131.237 131.237 0 0 1 3.893-30.147 139.119 139.119 0 0 0 31.007 3.41h.04a139.11 139.11 0 0 0 30.968-3.412 131.262 131.262 0 0 1 3.892 30.149h-3.39a2.5 2.5 0 0 0 0 5h3.39a131.247 131.247 0 0 1 -3.893 30.149 139.123 139.123 0 0 0 -30.968-3.41h-.039a139.145 139.145 0 0 0 -31.008 3.407 131.256 131.256 0 0 1 -3.892-30.146zm37.435-73.643c8.078 1.219 15.706 8.216 21.7 20.051a86.306 86.306 0 0 1 5.423 13.632 133.309 133.309 0 0 1 -27.127 3.188zm-5-.01v36.882a133.368 133.368 0 0 1 -27.2-3.187 86.236 86.236 0 0 1 5.424-13.634c6.017-11.868 13.672-18.872 21.775-20.062zm73.757 68.653h-31.392a136.428 136.428 0 0 0 -4.047-31.361 88.541 88.541 0 0 0 21.331-8.769 70.958 70.958 0 0 1 14.107 40.13zm-14.108 45.133a88.513 88.513 0 0 0 -21.329-8.771 136.429 136.429 0 0 0 4.047-31.362h31.39a70.959 70.959 0 0 1 -14.109 40.133zm-54.65 28.513v-36.87a133.219 133.219 0 0 1 27.128 3.186 86.358 86.358 0 0 1 -5.424 13.633c-5.998 11.833-13.626 18.83-21.704 20.051zm-5-36.871v36.881c-8.1-1.189-15.758-8.193-21.772-20.061a86.294 86.294 0 0 1 -5.423-13.631 133.308 133.308 0 0 1 27.195-3.191zm19.411 35.032a53.184 53.184 0 0 0 11.755-15.953 91.4 91.4 0 0 0 5.824-14.687 84.26 84.26 0 0 1 19.476 7.894 71.42 71.42 0 0 1 -37.055 22.744zm37.055-115.868a84.352 84.352 0 0 1 -19.48 7.888 91.444 91.444 0 0 0 -5.82-14.681 53.184 53.184 0 0 0 -11.755-15.95 71.424 71.424 0 0 1 37.055 22.743zm-70.945-22.743a53.184 53.184 0 0 0 -11.755 15.95 91.4 91.4 0 0 0 -5.824 14.687 84.26 84.26 0 0 1 -19.476-7.893 71.42 71.42 0 0 1 37.055-22.744zm-37.055 115.867a84.353 84.353 0 0 1 19.48-7.889 91.444 91.444 0 0 0 5.822 14.68 53.184 53.184 0 0 0 11.753 15.951 71.426 71.426 0 0 1 -37.055-22.742zm131.03 66.691c-14.661 14.661-40.491 14.047-47.841 13.545-.511-7.352-1.136-33.153 13.547-47.839 14.661-14.659 40.489-14.047 47.84-13.544.506 7.356 1.112 33.18-13.546 47.838z" fill="#9c9595" data-original="#846f75" style="" class=""/></g></svg>
