<?xml version="1.0"?>
<svg xmlns="http://www.w3.org/2000/svg" xmlns:xlink="http://www.w3.org/1999/xlink" xmlns:svgjs="http://svgjs.com/svgjs" version="1.1" width="512" height="512" x="0" y="0" viewBox="0 0 512 512" style="enable-background:new 0 0 512 512" xml:space="preserve" class=""><g><g xmlns="http://www.w3.org/2000/svg"><path d="m248 120h16v360h-16z" fill="#9c9595" data-original="#000000" style="" class=""/><path d="m144 120h88v360h-88z" fill="#9c9595" data-original="#000000" style="" class=""/><path d="m280 120h88v360h-88z" fill="#9c9595" data-original="#000000" style="" class=""/><path d="m32 440h96v-344h-96zm16-214a18.021 18.021 0 0 1 18-18h28a18.021 18.021 0 0 1 18 18v124a18.021 18.021 0 0 1 -18 18h-28a18.021 18.021 0 0 1 -18-18z" fill="#9c9595" data-original="#000000" style="" class=""/><path d="m32 32v48h96v-16a8 8 0 0 1 8-8h240a8 8 0 0 1 8 8v16h96v-48z" fill="#9c9595" data-original="#000000" style="" class=""/><path d="m32 456h96v24h-96z" fill="#9c9595" data-original="#000000" style="" class=""/><path d="m144 104h224v-32h-224zm184-24h16v16h-16zm-32 0h16v16h-16zm-32 0h16v16h-16zm-32 0h16v16h-16zm-32 0h16v16h-16zm-32 0h16v16h-16z" fill="#9c9595" data-original="#000000" style="" class=""/><path d="m96 226a2 2 0 0 0 -2-2h-28a2 2 0 0 0 -2 2v30h32z" fill="#9c9595" data-original="#000000" style="" class=""/><path d="m66 352h28a2 2 0 0 0 2-2v-78h-32v78a2 2 0 0 0 2 2zm6-64h16v16h-16zm0 32h16v16h-16z" fill="#9c9595" data-original="#000000" style="" class=""/><path d="m384 440h96v-344h-96zm78.4-123.2-24 32a8 8 0 0 1 -12.8 0l-24-32a8 8 0 0 1 6.4-12.8h48a8 8 0 0 1 6.4 12.8zm.755-33.222a8 8 0 0 1 -7.155 4.422h-48a8 8 0 0 1 -6.4-12.8l24-32a8 8 0 0 1 12.8 0l24 32a8 8 0 0 1 .755 8.378zm-63.155-123.578a8 8 0 0 1 8-8h48a8 8 0 0 1 8 8v32a8 8 0 0 1 -8 8h-48a8 8 0 0 1 -8-8z" fill="#9c9595" data-original="#000000" style="" class=""/><path d="m432 330.667 8-10.667h-16z" fill="#9c9595" data-original="#000000" style="" class=""/><path d="m384 456h96v24h-96z" fill="#9c9595" data-original="#000000" style="" class=""/><path d="m424 272h16l-8-10.667z" fill="#9c9595" data-original="#000000" style="" class=""/><path d="m416 168h32v16h-32z" fill="#9c9595" data-original="#000000" style="" class=""/></g></g></svg>
