<?xml version="1.0"?>
<svg xmlns="http://www.w3.org/2000/svg" xmlns:xlink="http://www.w3.org/1999/xlink" xmlns:svgjs="http://svgjs.com/svgjs" version="1.1" width="512" height="512" x="0" y="0" viewBox="0 0 512 512" style="enable-background:new 0 0 512 512" xml:space="preserve" class=""><g>
<g xmlns="http://www.w3.org/2000/svg">
	<g>
		<rect x="181.96" y="363.59" width="148.32" height="55.95" fill="#9c9595" data-original="#000000" style="" class=""/>
	</g>
</g>
<g xmlns="http://www.w3.org/2000/svg">
	<g>
		<polygon points="315.28,106.61 300.28,106.61 211.96,106.61 196.96,106.61 181.96,106.61 181.96,333.59 330.28,333.59     330.28,106.61   " fill="#9c9595" data-original="#000000" style="" class=""/>
	</g>
</g>
<g xmlns="http://www.w3.org/2000/svg">
	<g>
		<polygon points="181.96,0 181.96,76.61 196.96,76.61 211.96,76.61 300.28,76.61 315.28,76.61 330.28,76.61 330.28,0   " fill="#9c9595" data-original="#000000" style="" class=""/>
	</g>
</g>
<g xmlns="http://www.w3.org/2000/svg">
	<g>
		<rect x="84.49" y="449.54" width="343.26" height="62.46" fill="#9c9595" data-original="#000000" style="" class=""/>
	</g>
</g>
<g xmlns="http://www.w3.org/2000/svg">
	<g>
		<path d="M103.19,106.61h78.77v-30h-78.77c-26.64,0-48.31,21.68-48.31,48.32v51.18H24.79V302h29.848v19h30v-19h29.853V176.11H84.88    v-51.18C84.88,114.83,93.09,106.61,103.19,106.61z" fill="#9c9595" data-original="#000000" style="" class=""/>
	</g>
</g>
<g xmlns="http://www.w3.org/2000/svg">
	<g>
		<rect x="164.12" y="333.59" width="17.84" height="30" fill="#9c9595" data-original="#000000" style="" class=""/>
	</g>
</g>
<g xmlns="http://www.w3.org/2000/svg">
	<g>
		<rect x="330.28" y="333.59" width="17.84" height="30" fill="#9c9595" data-original="#000000" style="" class=""/>
	</g>
</g>
<g xmlns="http://www.w3.org/2000/svg">
	<g>
		<path d="M457.36,176.11v-51.18c0-26.64-21.67-48.32-48.31-48.32h-78.77v30h78.77c10.1,0,18.31,8.22,18.31,18.32v51.18h-29.85V302    h29.854v19h30v-19h29.846V176.11H457.36z" fill="#9c9595" data-original="#000000" style="" class=""/>
	</g>
</g>
<g xmlns="http://www.w3.org/2000/svg">
</g>
<g xmlns="http://www.w3.org/2000/svg">
</g>
<g xmlns="http://www.w3.org/2000/svg">
</g>
<g xmlns="http://www.w3.org/2000/svg">
</g>
<g xmlns="http://www.w3.org/2000/svg">
</g>
<g xmlns="http://www.w3.org/2000/svg">
</g>
<g xmlns="http://www.w3.org/2000/svg">
</g>
<g xmlns="http://www.w3.org/2000/svg">
</g>
<g xmlns="http://www.w3.org/2000/svg">
</g>
<g xmlns="http://www.w3.org/2000/svg">
</g>
<g xmlns="http://www.w3.org/2000/svg">
</g>
<g xmlns="http://www.w3.org/2000/svg">
</g>
<g xmlns="http://www.w3.org/2000/svg">
</g>
<g xmlns="http://www.w3.org/2000/svg">
</g>
<g xmlns="http://www.w3.org/2000/svg">
</g>
</g></svg>
