<?xml version="1.0"?>
<svg xmlns="http://www.w3.org/2000/svg" xmlns:xlink="http://www.w3.org/1999/xlink" xmlns:svgjs="http://svgjs.com/svgjs" version="1.1" width="512" height="512" x="0" y="0" viewBox="0 0 91.24 91.24" style="enable-background:new 0 0 512 512" xml:space="preserve" class=""><g>
<g xmlns="http://www.w3.org/2000/svg">
	<g>
		<path d="M13.166,24.999l0.115,14.029v0.001v0.001l0.418,51.218c0.002,0.266,0.109,0.52,0.299,0.705    c0.187,0.186,0.438,0.287,0.701,0.287c0.003,0,0.006,0,0.008,0l62.376-0.51c0.554-0.004,0.998-0.455,0.992-1.008l-0.531-65.25    c-0.002-0.265-0.108-0.519-0.299-0.705s-0.479-0.282-0.709-0.287l-0.69,0.006L75.662,0.992c-0.002-0.265-0.109-0.519-0.299-0.705    C75.173,0.103,74.923,0,74.662,0c-0.004,0-0.006,0-0.008,0L60.96,0.112c-0.553,0.004-0.996,0.456-0.992,1.008l0.187,22.497    l-3.748,0.031l-0.041-5.086l-0.05-5.663c-0.004-0.549-0.448-0.992-1-0.992c-0.002,0-0.006,0-0.008,0l-7.112,0.058l-0.039-4.832    c-0.002-0.266-0.106-0.519-0.302-0.705c-0.188-0.186-0.485-0.295-0.709-0.287L19.592,6.366c-0.266,0.002-0.52,0.11-0.705,0.299    S18.598,7.109,18.6,7.374l0.04,4.832l-3.225,0.026c-0.553,0.004-0.997,0.456-0.992,1.008l0.046,5.663l0.041,5.086l-0.352,0.003    C13.605,23.995,13.163,24.449,13.166,24.999z M54.371,19.578l0.031,3.663L16.504,23.55l-0.03-3.663l18.947-0.155L54.371,19.578z     M20.608,8.356l25.555-0.208l0.031,3.832l-25.554,0.208L20.608,8.356z M19.646,14.198c0,0,0.001,0,0.002,0    c0.003,0,0.006,0,0.008,0l27.553-0.225l0,0l7.115-0.058l0.03,3.663l-18.948,0.155L16.46,17.888l-0.03-3.663L19.646,14.198z     M15.175,25.982L75.55,25.49l0.1,12.031l-60.376,0.492L15.175,25.982z M15.69,89.232l-0.402-49.219l60.376-0.492l0.399,49.22    L15.69,89.232z M62.152,23.599L61.978,2.101l11.69-0.095l0.177,21.497l-0.313,0.003L62.152,23.599z" fill="#9c9595" data-original="#000000" style="" class=""/>
		<path d="M62.369,29.852c-0.004,0-0.006,0-0.008,0l-1,0.008c-0.553,0.004-0.998,0.456-0.992,1.008c0.004,0.549,0.451,0.992,1,0.992    c0.002,0,0.006,0,0.008,0l1-0.008c0.553-0.004,0.996-0.456,0.992-1.008C63.363,30.294,62.917,29.852,62.369,29.852z" fill="#9c9595" data-original="#000000" style="" class=""/>
		<path d="M67.369,29.811c-0.004,0-0.006,0-0.008,0l-1,0.008c-0.553,0.004-0.996,0.456-0.992,1.008c0.004,0.55,0.451,0.992,1,0.992    c0.002,0,0.004,0,0.008,0l1-0.008c0.553-0.004,0.996-0.456,0.992-1.008C68.365,30.254,67.917,29.811,67.369,29.811z" fill="#9c9595" data-original="#000000" style="" class=""/>
		<path d="M72.369,29.77c-0.004,0-0.006,0-0.008,0l-1,0.008c-0.553,0.004-0.998,0.456-0.992,1.008c0.004,0.549,0.451,0.992,1,0.992    c0.002,0,0.006,0,0.008,0l1-0.008c0.553-0.004,0.996-0.456,0.992-1.008C73.363,30.213,72.917,29.77,72.369,29.77z" fill="#9c9595" data-original="#000000" style="" class=""/>
		<path d="M57.369,29.893c-0.002,0-0.004,0-0.008,0l-1,0.008c-0.553,0.004-0.996,0.456-0.992,1.008c0.004,0.55,0.451,0.992,1,0.992    c0.004,0,0.006,0,0.008,0l1-0.008c0.553-0.004,0.996-0.456,0.992-1.008C58.365,30.335,57.917,29.893,57.369,29.893z" fill="#9c9595" data-original="#000000" style="" class=""/>
		<path d="M34.254,28.009c-0.187-0.184-0.438-0.287-0.701-0.287c-0.003,0-0.006,0-0.008,0l-13.777,0.112    c-0.553,0.004-0.997,0.456-0.992,1.008l0.038,4.733c0.002,0.266,0.109,0.519,0.299,0.705c0.187,0.184,0.438,0.287,0.701,0.287    c0.003,0,0.006,0,0.008,0L33.6,34.454c0.553-0.004,0.997-0.456,0.992-1.008l-0.038-4.733    C34.553,28.449,34.445,28.196,34.254,28.009z M20.809,32.558l-0.022-2.733l11.777-0.096l0.022,2.733L20.809,32.558z" fill="#9c9595" data-original="#000000" style="" class=""/>
		<path d="M59.412,57.958c-0.008-0.016-0.006-0.032-0.012-0.047c-0.002-0.006-0.008-0.008-0.012-0.013    c-1.97-5.698-7.386-9.819-13.724-9.819h-0.121c-3.88,0.031-7.515,1.572-10.235,4.338c-2.72,2.767-4.201,6.425-4.169,10.306    c0.002,0.252,0.029,0.496,0.044,0.744c-0.002,0.01-0.006,0.021-0.008,0.024c-0.046,0.19-0.017,0.377,0.042,0.549    c0.729,7.326,6.946,13.086,14.443,13.086h0.119c8.01-0.063,14.471-6.635,14.407-14.643C60.175,60.901,59.896,59.383,59.412,57.958    z M36.734,53.819c2.347-2.386,5.48-3.714,8.825-3.74h0.105c5.215,0,9.709,3.235,11.584,7.804c-1.498,0.815-3.705,2.229-4.03,3.62    c-0.216,0.927-1.859,1.322-4.502,1.097l-1.972-0.168c-2.026-0.172-3.25-0.271-7.997-0.765c-2.709-0.28-4.451-0.121-5.577,0.211    C33.348,58.842,34.584,56.005,36.734,53.819z M45.767,75.126h-0.104c-6.405,0-11.732-4.877-12.439-11.11    c0.415-0.248,1.72-0.729,5.324-0.357c4.768,0.488,5.995,0.594,8.034,0.766l1.963,0.168c3.904,0.342,6.141-0.545,6.623-2.627    c0.121-0.406,1.303-1.313,2.705-2.125c0.195,0.859,0.311,1.75,0.316,2.664C58.244,69.405,52.671,75.069,45.767,75.126z" fill="#9c9595" data-original="#000000" style="" class=""/>
		<path d="M45.666,40.724h-0.181c-5.844,0.048-11.319,2.368-15.417,6.534c-4.099,4.166-6.329,9.678-6.281,15.521    c0.098,11.965,9.909,21.697,21.872,21.697h0.183c5.845-0.049,11.319-2.367,15.417-6.533c4.1-4.166,6.327-9.68,6.28-15.521    C67.443,50.458,57.63,40.724,45.666,40.724z M59.833,76.542c-3.723,3.785-8.697,5.896-14.007,5.938h-0.166    c-10.869,0-19.784-8.844-19.872-19.715c-0.044-5.31,1.983-10.314,5.706-14.104c3.724-3.785,8.698-5.893,14.008-5.937h0.165    c10.872,0,19.788,8.845,19.875,19.715C65.583,67.749,63.558,72.758,59.833,76.542z" fill="#9c9595" data-original="#000000" style="" class=""/>
	</g>
</g>
<g xmlns="http://www.w3.org/2000/svg">
</g>
<g xmlns="http://www.w3.org/2000/svg">
</g>
<g xmlns="http://www.w3.org/2000/svg">
</g>
<g xmlns="http://www.w3.org/2000/svg">
</g>
<g xmlns="http://www.w3.org/2000/svg">
</g>
<g xmlns="http://www.w3.org/2000/svg">
</g>
<g xmlns="http://www.w3.org/2000/svg">
</g>
<g xmlns="http://www.w3.org/2000/svg">
</g>
<g xmlns="http://www.w3.org/2000/svg">
</g>
<g xmlns="http://www.w3.org/2000/svg">
</g>
<g xmlns="http://www.w3.org/2000/svg">
</g>
<g xmlns="http://www.w3.org/2000/svg">
</g>
<g xmlns="http://www.w3.org/2000/svg">
</g>
<g xmlns="http://www.w3.org/2000/svg">
</g>
<g xmlns="http://www.w3.org/2000/svg">
</g>
</g></svg>
