<?xml version="1.0"?>
<svg xmlns="http://www.w3.org/2000/svg" xmlns:xlink="http://www.w3.org/1999/xlink" xmlns:svgjs="http://svgjs.com/svgjs" version="1.1" width="512" height="512" x="0" y="0" viewBox="0 0 64 64" style="enable-background:new 0 0 512 512" xml:space="preserve" class=""><g>
<g xmlns="http://www.w3.org/2000/svg">
	<path d="M30,20h-7V9h1c0.552,0,1-0.447,1-1V2c0-0.553-0.448-1-1-1h-4c-0.552,0-1,0.447-1,1v1h-4V2c0-0.553-0.448-1-1-1h-4   C9.448,1,9,1.447,9,2v6c0,0.553,0.448,1,1,1h1v11H4c-1.654,0-3,1.346-3,3v33c0,1.654,1.346,3,3,3h1v2c0,1.103,0.897,2,2,2h2   c1.103,0,2-0.897,2-2v-2h12v2c0,1.103,0.897,2,2,2h2c1.103,0,2-0.897,2-2v-2h1c1.654,0,3-1.346,3-3V23C33,21.346,31.654,20,30,20z    M31,23v3h-3c-0.551,0-1-0.448-1-1v-3h3C30.551,22,31,22.448,31,23z M15,24v20c0,0.553,0.448,1,1,1h15v2H16c-0.552,0-1,0.447-1,1v9   h-2v-9c0-0.553-0.448-1-1-1H3v-2h9c0.552,0,1-0.447,1-1V24h-2v19H3V28h3c1.654,0,3-1.346,3-3v-3h16v3c0,1.654,1.346,3,3,3h3v15H17   V24H15z M25,54v3h-1h-7v-8h14v2h-3C26.346,51,25,52.346,25,54z M10,57H9v-3c0-1.654-1.346-3-3-3H3v-2h8v8H10z M21,3h2v4h-2V3z    M11,3h2v4h-2V3z M13,9h1c0.552,0,1-0.447,1-1V5h4v3c0,0.553,0.448,1,1,1h1v11h-8V9z M4,22h3v3c0,0.552-0.449,1-1,1H3v-3   C3,22.448,3.449,22,4,22z M3,56v-3h3c0.551,0,1,0.448,1,1v3H6H4C3.449,57,3,56.552,3,56z M9.001,61H7v-2h2L9.001,61z M27.001,61H25   v-2h2L27.001,61z M30,57h-2h-1v-3c0-0.552,0.449-1,1-1h3v3C31,56.552,30.551,57,30,57z" fill="#9c9595" data-original="#000000" style="" class=""/>
	<path d="M48,1c-8.271,0-15,6.729-15,15s6.729,15,15,15s15-6.729,15-15S56.271,1,48,1z M48,29c-7.168,0-13-5.832-13-13   S40.832,3,48,3s13,5.832,13,13S55.168,29,48,29z" fill="#9c9595" data-original="#000000" style="" class=""/>
	<path d="M55,15h-1v-4c0-3.309-2.691-6-6-6s-6,2.691-6,6v4h-1c-0.552,0-1,0.447-1,1v8c0,0.553,0.448,1,1,1h14c0.552,0,1-0.447,1-1   v-8C56,15.447,55.552,15,55,15z M44,11c0-2.206,1.794-4,4-4s4,1.794,4,4v4h-8V11z M54,23h-5v-2h2v-2h-6v2h2v2h-5v-6h12V23z" fill="#9c9595" data-original="#000000" style="" class=""/>
</g>
</g></svg>
