<?xml version="1.0"?>
<svg xmlns="http://www.w3.org/2000/svg" xmlns:xlink="http://www.w3.org/1999/xlink" xmlns:svgjs="http://svgjs.com/svgjs" version="1.1" width="512" height="512" x="0" y="0" viewBox="0 0 512 512" style="enable-background:new 0 0 512 512" xml:space="preserve" class=""><g><path xmlns="http://www.w3.org/2000/svg" d="m103.987 467h284.013a55.8 55.8 0 0 1 -24-45.832v-376.168h-318v364.347c0 31.79 26.2 57.653 57.987 57.653zm212.013-51a5 5 0 0 1 -5 5h-104a5 5 0 0 1 -5-5v-137a5 5 0 0 1 5-5h104a5 5 0 0 1 5 5zm-72.732-316.41c0-10.8 9.433-14.9 18.433-14.9 3.817 0 14.33.72 14.33 6.336 0 1.944-1.3 5.905-4.465 5.905-2.592 0-3.96-2.737-9.865-2.737-5.112 0-7.2 2.089-7.2 4.321 0 7.2 22.827 5.833 22.827 23.978 0 10.369-7.561 15.986-18 15.986-9.433 0-17.353-4.609-17.353-9.361 0-2.448 2.16-6.049 4.9-6.049 3.384 0 5.545 5.329 12.241 5.329 3.312 0 6.985-1.3 6.985-4.753-.007-8.718-22.833-7.206-22.833-24.055zm-64.295-14.473c1.728 0 3.168.576 3.6 2.088l10.945 36.939 5.688-24.338c.432-1.944 2.953-2.952 5.4-2.952s4.968 1.008 5.4 2.952l5.689 24.338 10.945-36.939c.432-1.512 1.872-2.088 3.6-2.088 3.24 0 7.273 2.016 7.273 4.464a3.243 3.243 0 0 1 -.144.937l-14.329 43.923c-.865 2.52-4.1 3.745-7.417 3.745-3.241 0-6.7-1.225-7.273-3.745l-3.744-17.066-3.745 17.066c-.575 2.52-4.032 3.745-7.272 3.745-3.313 0-6.625-1.225-7.417-3.745l-14.328-43.923a3.209 3.209 0 0 1 -.144-.937c0-2.448 4.032-4.464 7.273-4.464zm-44.973 3.456c0-2.3 2.133-3.573 4.582-3.573h25.634c2.376 0 3.384 2.624 3.384 4.928 0 2.664-1.224 5.072-3.384 5.072h-19.216v12h10.719c2.16 0 3.385 2.268 3.385 4.572 0 1.944-1.009 4.428-3.385 4.428h-10.719v12h19.216c2.16 0 3.384 2.408 3.384 5.072 0 2.3-1.008 4.928-3.384 4.928h-25.634c-2.449 0-4.582-1.4-4.582-3.7zm-48 0c0-2.376 2.978-3.456 5.786-3.456 4.032 0 5.713.36 8.449 5.616l11.765 22.25v-24.483c0-2.376 2.691-3.384 5.5-3.384s5.5 1.009 5.5 3.384v45.8c0 2.305-2.909 3.456-5.718 3.456-2.592 0-5-.5-6.365-3.024l-13.917-24.917v24.485c0 2.305-2.691 3.456-5.5 3.456s-5.5-1.156-5.5-3.456zm-.809 86.427h225.709a5 5 0 0 1 0 10h-225.709a5 5 0 0 1 0-10zm0 48h225.709a5 5 0 1 1 0 10h-225.709a5 5 0 0 1 0-10zm0 52h83.809a5 5 0 0 1 0 10h-83.809a5 5 0 0 1 0-10zm0 52h83.537a5 5 0 0 1 0 10h-83.537a5 5 0 0 1 0-10zm0 42h83.537a5 5 0 1 1 0 10h-83.537a5 5 0 0 1 0-10zm0 42h83.537a5 5 0 1 1 0 10h-83.537a5 5 0 0 1 0-10z" fill="#9c9595" data-original="#000000" style="" class=""/><path xmlns="http://www.w3.org/2000/svg" d="m212 284h94v127h-94z" fill="#9c9595" data-original="#000000" style="" class=""/><path xmlns="http://www.w3.org/2000/svg" d="m466 291h-92v130.168a46 46 0 0 0 92 0zm-35 120.333a5 5 0 1 1 -10 0v-63a5 5 0 0 1 10 0zm0-86a5 5 0 1 1 -10 0v-6.3a5 5 0 0 1 10 0z" fill="#9c9595" data-original="#000000" style="" class=""/></g></svg>
