<?xml version="1.0"?>
<svg xmlns="http://www.w3.org/2000/svg" xmlns:xlink="http://www.w3.org/1999/xlink" xmlns:svgjs="http://svgjs.com/svgjs" version="1.1" width="512" height="512" x="0" y="0" viewBox="0 0 512 512" style="enable-background:new 0 0 512 512" xml:space="preserve" class=""><g><circle xmlns="http://www.w3.org/2000/svg" cx="256" cy="256" fill="#9c9595" r="256" data-original="#e04955" style="" class=""/><path xmlns="http://www.w3.org/2000/svg" d="m274.028 511.372c-5.954.422-11.971.628-18.028.628-141.382 0-256-114.618-256-256s114.618-256 256-256c6.057 0 12.074.206 18.028.628-132.965 9.252-237.972 120.047-237.972 255.372s105.007 246.12 237.972 255.372z" fill="#9c9595" data-original="#d80a61" style="" class=""/><ellipse xmlns="http://www.w3.org/2000/svg" cx="256" cy="256" fill="#fff5f4" rx="211.66" ry="211.66" transform="matrix(.707 -.707 .707 .707 -106.039 256)" data-original="#fff5f4" style="" class=""/><g xmlns="http://www.w3.org/2000/svg" fill="#544f56"><ellipse cx="199.527" cy="169.191" rx="35.521" ry="50.895" fill="#9c9595" data-original="#544f56" style="" class=""/><ellipse cx="115.302" cy="248.67" rx="27.805" ry="39.84" transform="matrix(.932 -.363 .363 .932 -82.441 58.857)" fill="#9c9595" data-original="#544f56" style="" class=""/><ellipse cx="312.473" cy="169.191" rx="35.521" ry="50.895" fill="#9c9595" data-original="#544f56" style="" class=""/><ellipse cx="396.698" cy="248.67" rx="39.84" ry="27.805" transform="matrix(.363 -.932 .932 .363 20.932 527.966)" fill="#9c9595" data-original="#544f56" style="" class=""/><path d="m338.652 318.396-70.336-58.209c-7.145-5.913-17.495-5.924-24.653 0l-70.336 58.209c-25.712 21.278-15.531 71.188 24.698 71.188 7.729 0 15.151-2.305 21.407-6.452 10.827-7.177 23.565-10.925 36.555-10.925 12.905 0 25.637 3.588 36.348 10.785 6.355 4.27 13.884 6.591 21.618 6.591 37.645.001 51.924-48.657 24.699-71.187z" fill="#9c9595" data-original="#544f56" style="" class=""/></g><path xmlns="http://www.w3.org/2000/svg" d="m142.392 405.665c36.685 36.685 83.599 57.062 131.637 61.131-60.039 5.089-121.85-15.288-167.693-61.131-82.528-82.528-82.528-216.802 0-299.329 45.843-45.843 107.654-66.22 167.693-61.131-48.037 4.069-94.952 24.446-131.637 61.131-82.528 82.527-82.528 216.801 0 299.329z" fill="#eee6e3" data-original="#eee6e3" style="" class=""/><path xmlns="http://www.w3.org/2000/svg" d="m214.206 122.828c-4.471-2.905-9.447-4.533-14.68-4.533-19.615 0-35.521 22.787-35.521 50.891 0 28.114 15.906 50.901 35.521 50.901 5.233 0 10.209-1.628 14.68-4.533-12.29-8.005-20.841-25.755-20.841-46.368 0-20.603 8.55-38.353 20.841-46.358z" fill="#9c9595" data-original="#444145" style="" class=""/><path xmlns="http://www.w3.org/2000/svg" d="m118.759 258.771c-6.655-17.07-4.224-34.583 5.048-43.195-7.417-5.12-15.679-6.871-22.973-4.028-14.309 5.584-19.429 26.723-11.435 47.223 7.984 20.501 26.064 32.595 40.373 27.022 2.39-.927 4.522-2.297 6.377-4.028-7.139-4.914-13.475-12.939-17.39-22.994z" fill="#9c9595" data-original="#444145" style="" class=""/><path xmlns="http://www.w3.org/2000/svg" d="m327.155 122.828c-4.471-2.905-9.447-4.533-14.68-4.533-19.615 0-35.521 22.787-35.521 50.891 0 28.114 15.906 50.901 35.521 50.901 5.233 0 10.209-1.628 14.68-4.533-12.29-8.005-20.841-25.755-20.841-46.368 0-20.603 8.551-38.353 20.841-46.358z" fill="#9c9595" data-original="#444145" style="" class=""/><path xmlns="http://www.w3.org/2000/svg" d="m417.553 215.576c-1.865-1.731-3.997-3.091-6.387-4.028-14.309-5.573-32.379 6.521-40.373 27.022s-2.874 41.64 11.435 47.223c7.294 2.843 15.566 1.092 22.983-4.028-9.272-8.592-11.713-26.115-5.058-43.195 3.925-10.055 10.261-18.091 17.4-22.994z" fill="#9c9595" data-original="#444145" style="" class=""/><path xmlns="http://www.w3.org/2000/svg" d="m215.627 385.35c-5.367 2.74-11.383 4.234-17.595 4.234-40.239 0-50.417-49.912-24.704-71.185l70.341-58.216c7.149-5.924 17.503-5.913 24.652 0l5.697 4.718-64.634 53.497c-21.18 17.524-18.007 54.466 6.243 66.952z" fill="#9c9595" data-original="#444145" style="" class=""/><path xmlns="http://www.w3.org/2000/svg" d="m390.696 422.288-299.375-299.424 3.971-26.542 27.411-5.175 298.555 298.433.429 29.704z" fill="#9c9595" data-original="#e04955" style="" class=""/></g></svg>
