<?xml version="1.0"?>
<svg xmlns="http://www.w3.org/2000/svg" xmlns:xlink="http://www.w3.org/1999/xlink" xmlns:svgjs="http://svgjs.com/svgjs" version="1.1" width="512" height="512" x="0" y="0" viewBox="0 0 512 512" style="enable-background:new 0 0 512 512" xml:space="preserve" class=""><g><g xmlns="http://www.w3.org/2000/svg"><g><path d="m482 170v312h-15c-8.284 0-15 6.716-15 15s6.716 15 15 15h30c8.284 0 15-6.716 15-15v-327z" fill="#9c9595" data-original="#000000" style="" class=""/><g><path d="m411.722 50h-6.678c.007 2.817.013 5.501.013 6.932 0 1.664.01 4.274.021 6.953 2.559-.012 5.038-.021 6.644-.021 3.938 0 7.264-3.174 7.264-6.932s-3.327-6.932-7.264-6.932z" fill="#9c9595" data-original="#000000" style="" class=""/><path d="m382 0c-38.66 0-70 31.34-70 70 0 38.66 31.34 70 70 70h130v-125c0-8.284-6.716-15-15-15zm29.722 83.864c-1.617 0-4.127.009-6.707.021v16.115c0 5.523-4.478 10-10 10s-10-4.477-10-10v-60c0-.273.014-.511.035-.732.175-2.378 1.187-4.627 2.883-6.328 1.876-1.882 4.424-2.94 7.082-2.94h16.707c15.033 0 27.264 12.082 27.264 26.932s-12.231 26.932-27.264 26.932z" fill="#9c9595" data-original="#000000" style="" class=""/></g></g><g><g><path d="m355 512h-30c-13.807 0-25-11.193-25-25v-5h80v5c0 13.807-11.193 25-25 25z" fill="#9c9595" data-original="#000000" style="" class=""/><path d="m125 512h-30c-13.807 0-25-11.193-25-25v-5h80v5c0 13.807-11.193 25-25 25z" fill="#9c9595" data-original="#000000" style="" class=""/><g><path d="m245 407h-40c-2.757 0-5 2.243-5 5v40h50v-40c0-2.757-2.243-5-5-5z" fill="#9c9595" data-original="#000000" style="" class=""/><path d="m395 332h-340c-19.33 0-35 15.67-35 35v50c0 19.33 15.67 35 35 35h115v-40c0-19.299 15.701-35 35-35h40c19.299 0 35 15.701 35 35v40h115c19.33 0 35-15.67 35-35v-50c0-19.33-15.67-35-35-35zm-285 75h-30c-8.284 0-15-6.716-15-15s6.716-15 15-15h30c8.284 0 15 6.716 15 15s-6.716 15-15 15zm260 0h-30c-8.284 0-15-6.716-15-15s6.716-15 15-15h30c8.284 0 15 6.716 15 15s-6.716 15-15 15z" fill="#9c9595" data-original="#000000" style="" class=""/></g><g><path d="m275 252c30.678 0 56.442 21.369 63.234 50h48.478l-15.798-63.19c-8.362-33.449-38.282-56.81-72.761-56.81h-146.306c-34.479 0-64.399 23.361-72.761 56.81l-15.798 63.19h148.478c6.792-28.631 32.556-50 63.234-50z" fill="#9c9595" data-original="#000000" style="" class=""/><path d="m243.384 302h63.232c-5.628-11.814-17.682-20-31.616-20s-25.988 8.186-31.616 20z" fill="#9c9595" data-original="#000000" style="" class=""/></g><g><path d="m425 252h-19.865l12.5 50h7.365c13.807 0 25-11.193 25-25 0-13.807-11.193-25-25-25z" fill="#9c9595" data-original="#000000" style="" class=""/></g><g><path d="m25 252h19.865l-12.5 50h-7.365c-13.807 0-25-11.193-25-25 0-13.807 11.193-25 25-25z" fill="#9c9595" data-original="#000000" style="" class=""/></g></g></g></g></g></svg>
