<?xml version="1.0"?>
<svg xmlns="http://www.w3.org/2000/svg" xmlns:xlink="http://www.w3.org/1999/xlink" xmlns:svgjs="http://svgjs.com/svgjs" version="1.1" width="512" height="512" x="0" y="0" viewBox="0 0 64 64" style="enable-background:new 0 0 512 512" xml:space="preserve" class=""><g><path xmlns="http://www.w3.org/2000/svg" d="m62 31h-33v-2c0-5.064-3.158-9.396-7.604-11.155 2.744-1.543 4.604-4.479 4.604-7.845 0-4.963-4.038-9-9-9s-9 4.037-9 9c0 3.366 1.86 6.302 4.604 7.845-4.446 1.759-7.604 6.091-7.604 11.155v2h-3c-.552 0-1 .447-1 1v4c0 .553.448 1 1 1h1v25c0 .553.448 1 1 1h56c.552 0 1-.447 1-1v-25h1c.552 0 1-.447 1-1v-4c0-.553-.448-1-1-1zm-45-28c3.518 0 6.43 2.612 6.92 5.996-2.28-.02-4.422-.914-6.038-2.529l-1.175-1.175c-.287-.286-.717-.373-1.09-.217-.373.155-.617.521-.617.925 0 1.654-1.346 3-3 3h-1.92c.488-3.386 3.401-6 6.92-6zm-6.92 8h1.92c2.048 0 3.812-1.237 4.584-3.004 1.98 1.921 4.576 2.981 7.337 3-.487 3.388-3.4 6.004-6.921 6.004-3.519 0-6.432-2.614-6.92-6zm-3.08 18c0-5.514 4.486-10 10-10s10 4.486 10 10v2h-20zm29 14h-8v-2h8zm2 2c.551 0 1 .448 1 1v1h-14v-1c0-.552.449-1 1-1zm1 8h-6v-4h6zm-14-4h6v4h-6zm0 6h14v1c0 .552-.449 1-1 1h-12c-.551 0-1-.448-1-1zm1.414 4h11.172l2 2h-15.172zm32.586-6h-16v2h16v2h-16v2h16v2h-16.586l-2.615-2.615c.725-.548 1.201-1.408 1.201-2.385v-10c0-1.654-1.346-3-3-3v-3c0-.553-.448-1-1-1h-10c-.552 0-1 .447-1 1v3c-1.654 0-3 1.346-3 3v10c0 .977.476 1.837 1.201 2.385l-2.615 2.615h-16.586v-2h16v-2h-16v-2h16v-2h-16v-16h54zm2-18h-58v-2h58z" fill="#9c9595" data-original="#000000" style="" class=""/><path xmlns="http://www.w3.org/2000/svg" d="m58 1h-18c-2.757 0-5 2.243-5 5v8c0 2.757 2.243 5 5 5h6v3c0 .404.244.77.617.924.124.052.254.076.383.076.26 0 .516-.102.707-.293l3.707-3.707h6.586c2.757 0 5-2.243 5-5v-8c0-2.757-2.243-5-5-5zm3 13c0 1.654-1.346 3-3 3h-7c-.265 0-.52.105-.707.293l-2.293 2.293v-1.586c0-.553-.448-1-1-1h-7c-1.654 0-3-1.346-3-3v-8c0-1.654 1.346-3 3-3h18c1.654 0 3 1.346 3 3z" fill="#9c9595" data-original="#000000" style="" class=""/><path xmlns="http://www.w3.org/2000/svg" d="m39 5h20v2h-20z" fill="#9c9595" data-original="#000000" style="" class=""/><path xmlns="http://www.w3.org/2000/svg" d="m39 13h20v2h-20z" fill="#9c9595" data-original="#000000" style="" class=""/><path xmlns="http://www.w3.org/2000/svg" d="m41 9h16v2h-16z" fill="#9c9595" data-original="#000000" style="" class=""/></g></svg>
