<?xml version="1.0"?>
<svg xmlns="http://www.w3.org/2000/svg" xmlns:xlink="http://www.w3.org/1999/xlink" xmlns:svgjs="http://svgjs.com/svgjs" version="1.1" width="512" height="512" x="0" y="0" viewBox="0 0 512 512" style="enable-background:new 0 0 512 512" xml:space="preserve" class=""><g><path xmlns="http://www.w3.org/2000/svg" d="m465.209 255.16-84.209-65.496v82.336h5c8.284 0 15 6.716 15 15s-6.716 15-15 15h-20-20c-8.284 0-15-6.716-15-15s6.716-15 15-15h5v-82.336l-84.209 65.496c-3.654 2.841-5.791 7.211-5.791 11.84v230c0 8.284 6.716 15 15 15h180c8.284 0 15-6.716 15-15v-230c0-4.629-2.137-8.999-5.791-11.84zm-69.209 196.84h-60c-8.284 0-15-6.716-15-15s6.716-15 15-15h60c8.284 0 15 6.716 15 15s-6.716 15-15 15zm0-60h-60c-8.284 0-15-6.716-15-15s6.716-15 15-15h60c8.284 0 15 6.716 15 15s-6.716 15-15 15z" fill="#9c9595" data-original="#000000" style=""/><path xmlns="http://www.w3.org/2000/svg" d="m161 124.58c17.459 6.192 30 22.865 30 42.42 0 24.813-20.187 45-45 45s-45-20.187-45-45c0-19.555 12.541-36.228 30-42.42v-49.58c0-4.107.345-8.133.983-12.062-51.294 6.873-90.983 50.917-90.983 104.062 0 40.784 23.715 77.666 60 94.887v195.113c0 3.246 1.053 6.403 3 9l30 40c2.833 3.777 7.278 6 12 6s9.167-2.223 12-6l30-40c1.947-2.597 3-5.754 3-9v-25.458l17.48-26.221c3.359-5.038 3.359-11.603 0-16.641l-14.453-21.68 14.453-21.68c3.359-5.038 3.359-11.603 0-16.641l-17.48-26.221v-40.572c36.285-17.221 60-54.103 60-94.887 0-52.267-38.389-95.731-88.45-103.692-1.005 3.732-1.55 7.649-1.55 11.693z" fill="#9c9595" data-original="#000000" style=""/><path xmlns="http://www.w3.org/2000/svg" d="m375.209 185.16 5.791 4.504v-114.664c0-41.355-33.645-75-75-75h-100c-37.249 0-68.229 27.299-74.017 62.938 4.587-.615 9.265-.938 14.017-.938 5.63 0 11.157.451 16.55 1.308 5.161-19.161 22.68-33.308 43.45-33.308h100c24.813 0 45 20.187 45 45v114.664l5.791-4.504c5.416-4.213 13.002-4.213 18.418 0z" fill="#9c9595" data-original="#000000" style=""/><path xmlns="http://www.w3.org/2000/svg" d="m146 152c8.284 0 15-6.716 15-15v-12.42c-4.695-1.665-9.741-2.58-15-2.58s-10.305.915-15 2.58v12.42c0 8.284 6.716 15 15 15z" fill="#9c9595" data-original="#000000" style=""/></g></svg>
