<?xml version="1.0"?>
<svg xmlns="http://www.w3.org/2000/svg" xmlns:xlink="http://www.w3.org/1999/xlink" xmlns:svgjs="http://svgjs.com/svgjs" version="1.1" width="512" height="512" x="0" y="0" viewBox="0 0 512 512" style="enable-background:new 0 0 512 512" xml:space="preserve" class=""><g><g xmlns="http://www.w3.org/2000/svg"><circle cx="130" cy="382" r="45" fill="#9c9595" data-original="#000000" style=""/><path d="m130 252c-71.682 0-130 58.318-130 130s58.318 130 130 130 130-58.318 130-130-58.318-130-130-130zm0 205c-41.355 0-75-33.645-75-75s33.645-75 75-75 75 33.645 75 75-33.645 75-75 75z" fill="#9c9595" data-original="#000000" style=""/><path d="m370 434.929v-72.929h-30v72.929c-14.643 5.947-25 20.318-25 37.071 0 22.056 17.944 40 40 40s40-17.944 40-40c0-16.753-10.357-31.124-25-37.071z" fill="#9c9595" data-original="#000000" style=""/><path d="m497 422h-30.866l-56.321-109.009c-2.03-22.973-21.312-40.991-44.813-40.991h-25v-62h-30v62h-63.919c16.05 16.929 28.441 37.355 35.909 60h103.876l57.808 111.886c2.575 4.983 7.716 8.114 13.326 8.114h40c8.284 0 15-6.716 15-15s-6.716-15-15-15z" fill="#9c9595" data-original="#000000" style=""/><path d="m15 70c8.284 0 15-6.716 15-15v-7.029c0-9.909 8.062-17.971 17.971-17.971 8.536 0 15.947 6.075 17.621 14.446l36.016 180.078c9.217-1.657 18.705-2.524 28.392-2.524.569 0 1.134.016 1.702.022l-36.692-183.459c-4.469-22.344-24.251-38.563-47.039-38.563-26.451 0-47.971 21.52-47.971 47.971v7.029c0 8.284 6.716 15 15 15z" fill="#9c9595" data-original="#000000" style=""/><path d="m340 180c0-33.137-26.863-60-60-60h-138.109l12 60z" fill="#9c9595" data-original="#000000" style=""/></g></g></svg>
